<svg xmlns="http://www.w3.org/2000/svg" width="1200" height="860" viewBox="0 0 1200 860" role="img" aria-labelledby="ip-t ip-d">
  <title id="ip-t">Industrial LPG installation with bulk tank and cylinder manifold</title>
  <desc id="ip-d">A commercial plant installation showing a horizontal bulk LPG tank, pipe rack, control panel and a technician on site.</desc>
  <defs>
    <linearGradient id="ip-bg" x1="0" y1="0" x2="0" y2="1">
      <stop offset="0" stop-color="#e8f2fb"/><stop offset=".55" stop-color="#cfe2f4"/><stop offset="1" stop-color="#b3cde5"/>
    </linearGradient>
    <linearGradient id="ip-tank" x1="0" y1="0" x2="0" y2="1">
      <stop offset="0" stop-color="#ffffff"/><stop offset=".38" stop-color="#dfeaf5"/><stop offset=".68" stop-color="#a6bcd1"/><stop offset="1" stop-color="#728aa1"/>
    </linearGradient>
    <linearGradient id="ip-ground" x1="0" y1="0" x2="0" y2="1">
      <stop offset="0" stop-color="#93a9be"/><stop offset="1" stop-color="#5c7288"/>
    </linearGradient>
    <linearGradient id="ip-cyl" x1="0" y1="0" x2="1" y2="0">
      <stop offset="0" stop-color="#08528f"/><stop offset=".32" stop-color="#3d9de3"/><stop offset=".6" stop-color="#0d69b5"/><stop offset="1" stop-color="#054478"/>
    </linearGradient>
  </defs>

  <rect width="1200" height="860" fill="url(#ip-bg)"/>
  <circle cx="960" cy="150" r="96" fill="#ffd21c" opacity=".26"/>

  <g fill="#9fb8ce" opacity=".7">
    <rect x="40" y="330" width="140" height="270"/><rect x="200" y="288" width="80" height="312"/>
    <rect x="1020" y="318" width="140" height="282"/>
  </g>
  <g stroke="#8aa4bd" stroke-width="8" fill="none" opacity=".8">
    <path d="M92 330v-90h48v90M116 240v-42"/>
  </g>

  <g>
    <rect x="330" y="180" width="46" height="420" rx="10" fill="#7d97ae"/>
    <rect x="330" y="180" width="17" height="420" fill="#96aec3"/>
    <g fill="#647d94"><rect x="320" y="238" width="66" height="10" rx="5"/><rect x="320" y="302" width="66" height="10" rx="5"/><rect x="320" y="366" width="66" height="10" rx="5"/></g>
    <path d="M330 180a23 23 0 0 1 46 0" fill="#7d97ae"/>
  </g>

  <g stroke="#8aa4bd" stroke-width="11" fill="none" stroke-linecap="round" opacity=".95">
    <path d="M376 262h300M376 300h300"/>
    <path d="M676 262v190M714 300v152"/>
  </g>
  <g fill="#ffd21c"><rect x="524" y="248" width="34" height="28" rx="7"/><rect x="596" y="286" width="34" height="28" rx="7"/></g>

  <rect y="600" width="1200" height="260" fill="url(#ip-ground)"/>
  <path d="M0 600h1200" stroke="#41586e" stroke-width="5"/>
  <g stroke="#ffffff" stroke-width="6" opacity=".22" fill="none"><path d="M0 690h1200M0 770h1200"/></g>

  <g transform="translate(430 386)">
    <ellipse cx="290" cy="236" rx="330" ry="30" fill="#20364b" opacity=".3"/>
    <rect x="70" y="52" width="440" height="152" rx="76" fill="url(#ip-tank)"/>
    <ellipse cx="70" cy="128" rx="44" ry="76" fill="#c9dbeb"/>
    <ellipse cx="510" cy="128" rx="44" ry="76" fill="#b6cbdd"/>
    <rect x="118" y="86" width="352" height="14" rx="7" fill="#ffffff" opacity=".7"/>
    <rect x="150" y="160" width="290" height="22" rx="11" fill="#0057a8"/>
    <rect x="182" y="24" width="42" height="32" rx="8" fill="#8299ad"/>
    <rect x="366" y="24" width="42" height="32" rx="8" fill="#8299ad"/>
    <rect x="168" y="10" width="70" height="16" rx="8" fill="#647d94"/>
    <rect x="352" y="10" width="70" height="16" rx="8" fill="#647d94"/>
    <g fill="#5a7089"><rect x="120" y="204" width="26" height="52" rx="8"/><rect x="434" y="204" width="26" height="52" rx="8"/></g>
    <rect x="86" y="252" width="408" height="16" rx="8" fill="#41586e"/>
    <circle cx="470" cy="128" r="24" fill="#ffd21c"/>
    <circle cx="470" cy="128" r="10" fill="#ffffff" opacity=".8"/>
  </g>

  <g transform="translate(112 462)">
    <ellipse cx="118" cy="180" rx="150" ry="20" fill="#20364b" opacity=".28"/>
    <g transform="translate(0 40)">
      <rect x="0" y="0" width="70" height="140" rx="22" fill="url(#ip-cyl)"/>
      <rect x="0" y="96" width="70" height="20" fill="#ffd21c"/>
      <rect x="21" y="-19" width="28" height="22" rx="6" fill="#8299ad"/>
      <rect x="11" y="-28" width="48" height="10" rx="5" fill="#647d94"/>
    </g>
    <g transform="translate(84 40)">
      <rect x="0" y="0" width="70" height="140" rx="22" fill="url(#ip-cyl)"/>
      <rect x="0" y="96" width="70" height="20" fill="#ffd21c"/>
      <rect x="21" y="-19" width="28" height="22" rx="6" fill="#8299ad"/>
      <rect x="11" y="-28" width="48" height="10" rx="5" fill="#647d94"/>
    </g>
    <g transform="translate(168 40)">
      <rect x="0" y="0" width="70" height="140" rx="22" fill="url(#ip-cyl)"/>
      <rect x="0" y="96" width="70" height="20" fill="#ffd21c"/>
      <rect x="21" y="-19" width="28" height="22" rx="6" fill="#8299ad"/>
      <rect x="11" y="-28" width="48" height="10" rx="5" fill="#647d94"/>
    </g>
    <g stroke="#8aa4bd" stroke-width="8" fill="none" stroke-linecap="round">
      <path d="M18 6h222"/><path d="M35 6v28M119 6v28M203 6v28"/>
    </g>
    <rect x="-10" y="180" width="278" height="14" rx="7" fill="#41586e"/>
  </g>

  <g transform="translate(880 452)">
    <rect x="0" y="0" width="150" height="118" rx="14" fill="#0f4577"/>
    <rect x="12" y="14" width="126" height="62" rx="8" fill="#7fd0ff" opacity=".85"/>
    <g fill="#0b3459" opacity=".5"><rect x="22" y="26" width="70" height="8" rx="4"/><rect x="22" y="42" width="46" height="8" rx="4"/><rect x="22" y="58" width="90" height="8" rx="4"/></g>
    <circle cx="34" cy="96" r="10" fill="#ffd21c"/><circle cx="66" cy="96" r="10" fill="#5be08a"/><circle cx="98" cy="96" r="10" fill="#ff7a2f"/>
    <rect x="66" y="118" width="16" height="30" fill="#41586e"/>
    <rect x="34" y="148" width="82" height="12" rx="6" fill="#41586e"/>
  </g>

  <g transform="translate(760 430)">
    <ellipse cx="42" cy="180" rx="52" ry="12" fill="#20364b" opacity=".3"/>
    <path d="M14 176V96a28 28 0 0 1 56 0v80z" fill="#ffd21c"/>
    <rect x="14" y="118" width="56" height="12" fill="#0f4577" opacity=".25"/>
    <path d="M22 176h18v-40h-18zM44 176h18v-40h-18z" fill="#123a5f"/>
    <circle cx="42" cy="64" r="26" fill="#f0c9a4"/>
    <path d="M12 62a30 30 0 0 1 60 0z" fill="#ffffff"/>
    <path d="M8 62h68v10H8z" fill="#e6eef6"/>
    <rect x="26" y="86" width="32" height="12" rx="6" fill="#e2b98a"/>
    <path d="M70 110l34 22-8 14-38-24z" fill="#ffd21c"/>
  </g>

  <g stroke="#41586e" stroke-width="5" fill="none" opacity=".55">
    <path d="M0 812h1200"/><path d="M60 812v-48M240 812v-48M420 812v-48M600 812v-48M780 812v-48M960 812v-48M1140 812v-48"/>
  </g>
</svg>
