<svg xmlns="http://www.w3.org/2000/svg" viewBox="0 0 800 1000"><defs><linearGradient id="a" x2="1" y2="1"><stop stop-color="#fff1a6"/><stop offset="1" stop-color="#0057a8"/></linearGradient></defs><rect width="800" height="1000" fill="#e7f1f9"/><circle cx="650" cy="170" r="230" fill="#ffd21c" opacity=".3"/><path d="M0 750 Q300 560 800 680V1000H0Z" fill="#082f57"/><rect x="190" y="200" width="420" height="490" rx="30" fill="#f3f8fd"/><path d="M260 365h280v270H260z" fill="url(#a)"/><path d="M300 365v-55q0-90 100-90t100 90v55" fill="none" stroke="#0057a8" stroke-width="26"/><circle cx="400" cy="500" r="80" fill="#fff" opacity=".9"/><path d="M400 445c-68 70-35 130 0 130 38 0 63-49 18-93 4 35-24 43-24 16 0-20 21-33 6-53z" fill="#ffd21c"/><circle cx="625" cy="735" r="105" fill="#fff"/><circle cx="625" cy="735" r="78" fill="#0057a8"/><path d="M625 683c-55 58-28 104 0 104 31 0 51-40 15-76 3 29-19 35-19 14 0-17 17-28 4-42z" fill="#fff"/></svg>
